<svg xmlns:inkscape="http://www.inkscape.org/namespaces/inkscape" xmlns:sodipodi="http://sodipodi.sourceforge.net/DTD/sodipodi-0.dtd" xmlns="http://www.w3.org/2000/svg" xmlns:svg="http://www.w3.org/2000/svg" version="1.1" id="svg2" xml:space="preserve" sodipodi:docname="CalvertContractingLogo-11d-2c (1) (1).ai" viewBox="0 0 612 792"><defs id="defs6"><clipPath clipPathUnits="userSpaceOnUse" id="clipPath16"><path d="M 0,792 H 612 V 0 H 0 Z" id="path14"/></clipPath></defs><sodipodi:namedview id="namedview4" pagecolor="#ffffff" bordercolor="#666666" borderopacity="1.0" inkscape:pageshadow="2" inkscape:pageopacity="0.0" inkscape:pagecheckerboard="0"/><g id="g8" inkscape:groupmode="layer" inkscape:label="CalvertContractingLogo-11d-2c (1) (1)" transform="matrix(1.3333333,0,0,-1.3333333,0,1056)"><g id="g10"><g id="g12" clip-path="url(#clipPath16)"><g id="g18" transform="translate(85.2015,699.7179)"><path d="M 0,0 C -10.227,-31.799 10.41,-61.225 46.546,-64.166 6.567,-55.32 -0.285,-5.523 20.614,17.915 18.97,17.165 17.377,16.324 15.839,15.4 L 4.582,21.899 -6.339,10.978 Z m 28.941,-72.768 3.337,-12.456 h 15.444 l 3.281,12.243 c 5.154,1.134 10,3.09 14.39,5.728 l 11.257,-6.5 4.511,4.511 v 14.649 C 74.406,-62.38 65.105,-67.769 55.246,-70.62 46.653,-73.105 37.739,-73.689 28.941,-72.768" style="fill:#a2a9ad;fill-opacity:1;fill-rule:evenodd;stroke:none" id="path20"/></g><g id="g22" transform="translate(115.431,720.8453)"><path d="m 0,0 c -13.611,-7.859 -19.341,-21.4 -18.023,-46.541 0.275,21.002 17.386,37.944 38.454,37.944 12.423,0 23.469,-5.893 30.5,-15.034 v 19.892 l -3.64,3.64 -10.978,-6.339 c -4.321,2.763 -9.112,4.854 -14.226,6.13 L 18.724,12.244 H 3.28 Z m 50.135,-71.479 c -22.953,-28.193 -66.599,-16.545 -81.059,11.447 -4.067,7.788 -5.811,16.211 -5.485,24.666 l -12.502,-3.35 V -54.16 l 12.243,-3.28 c 1.133,-5.155 3.09,-10.001 5.727,-14.391 l -6.498,-11.257 10.92,-10.92 10.979,6.338 c 29.675,-8.854 54.142,1.025 65.675,16.191" style="fill:#1a3768;fill-opacity:1;fill-rule:evenodd;stroke:none" id="path24"/></g><g id="g26" transform="translate(140.7773,678.7383)"><path d="m 0,0 -3.485,-4.508 h -8.806 c -1.52,0 -2.927,0.227 -4.219,0.681 -1.294,0.455 -2.407,1.079 -3.342,1.874 -0.935,0.795 -1.669,1.739 -2.201,2.831 -0.533,1.091 -0.8,2.275 -0.8,3.551 0,1.275 0.267,2.441 0.8,3.498 0.532,1.057 1.266,1.966 2.201,2.726 0.935,0.76 2.048,1.345 3.342,1.756 1.292,0.41 2.699,0.616 4.219,0.616 H 0 l -3.485,-4.56 h -8.806 c -0.734,0 -1.415,-0.105 -2.044,-0.315 -0.629,-0.21 -1.171,-0.502 -1.625,-0.878 -0.455,-0.376 -0.812,-0.825 -1.075,-1.35 -0.261,-0.524 -0.393,-1.1 -0.393,-1.729 0,-0.629 0.127,-1.201 0.381,-1.716 0.253,-0.516 0.611,-0.957 1.074,-1.324 0.463,-0.367 1.009,-0.651 1.638,-0.852 C -13.706,0.1 -13.025,0 -12.291,0 Z" style="fill:#1a3768;fill-opacity:1;fill-rule:nonzero;stroke:none" id="path28"/></g><g id="g30" transform="translate(149.1895,674.2305)"><path d="m 0,0 3.276,4.508 h 4.403 1.638 c 0.567,0 1.061,-0.018 1.48,-0.053 C 10.553,4.77 10.269,5.167 9.946,5.647 9.622,6.128 9.313,6.578 9.016,6.997 L 5.871,11.636 -2.358,0 H -8.779 L 2.464,15.855 c 0.367,0.507 0.829,0.961 1.389,1.363 0.559,0.402 1.266,0.603 2.123,0.603 0.82,0 1.506,-0.188 2.057,-0.564 0.55,-0.376 1.017,-0.843 1.402,-1.402 L 20.389,0 Z" style="fill:#1a3768;fill-opacity:1;fill-rule:nonzero;stroke:none" id="path32"/></g><g id="g34" transform="translate(190.5176,678.7383)"><path d="M 0,0 -3.512,-4.508 H -19 v 17.533 h 5.425 V 0 Z" style="fill:#1a3768;fill-opacity:1;fill-rule:nonzero;stroke:none" id="path36"/></g><g id="g38" transform="translate(193.2173,691.7632)"><path d="M 0,0 7.888,-11.636 16.117,0 h 6.395 L 11.295,-15.855 c -0.384,-0.507 -0.856,-0.961 -1.415,-1.363 -0.559,-0.402 -1.258,-0.603 -2.096,-0.603 -0.822,0 -1.508,0.188 -2.058,0.564 -0.55,0.375 -1.018,0.842 -1.402,1.402 L -6.657,0 Z" style="fill:#1a3768;fill-opacity:1;fill-rule:nonzero;stroke:none" id="path40"/></g><g id="g42" transform="translate(238.0308,678.7383)"><path d="M 0,0 -3.485,-4.508 H -20.363 V 13.025 H -0.052 L -3.564,8.465 H -14.912 V 6.368 h 13.89 L -4.141,2.385 H -14.912 V 0 Z" style="fill:#1a3768;fill-opacity:1;fill-rule:nonzero;stroke:none" id="path44"/></g><g id="g46" transform="translate(264.7617,674.2305)"><path d="m 0,0 h -7.259 l -3.905,4.639 h -8.334 V 0 h -5.425 V 8.963 H -9.67 c 0.838,0 1.546,0.174 2.122,0.524 0.577,0.349 0.865,0.829 0.865,1.441 0,0.682 -0.262,1.193 -0.786,1.533 -0.524,0.341 -1.258,0.512 -2.201,0.512 h -15.253 l 3.538,4.56 h 11.269 c 0.996,0 2.027,-0.092 3.093,-0.276 1.065,-0.183 2.035,-0.511 2.908,-0.983 0.874,-0.471 1.594,-1.109 2.162,-1.913 0.568,-0.803 0.852,-1.834 0.852,-3.092 0,-0.682 -0.105,-1.328 -0.314,-1.939 C -1.625,8.718 -1.926,8.167 -2.319,7.679 -2.712,7.189 -3.193,6.774 -3.761,6.434 -4.329,6.093 -4.971,5.853 -5.687,5.713 -5.39,5.486 -5.058,5.198 -4.691,4.848 -4.324,4.499 -3.835,4.018 -3.224,3.407 Z" style="fill:#1a3768;fill-opacity:1;fill-rule:nonzero;stroke:none" id="path48"/></g><g id="g50" transform="translate(288.479,691.7632)"><path d="M 0,0 -3.512,-4.56 H -9.775 V -17.533 H -15.2 V -4.56 h -8.229 L -19.917,0 Z" style="fill:#1a3768;fill-opacity:1;fill-rule:nonzero;stroke:none" id="path52"/></g><g id="g54" transform="translate(123.0015,658.3008)"><path d="m 0,0 c -0.907,0.487 -1.62,1.163 -2.139,2.028 -0.519,0.865 -0.778,1.842 -0.778,2.933 0,1.09 0.259,2.067 0.778,2.932 0.519,0.865 1.232,1.541 2.139,2.029 0.906,0.487 1.926,0.731 3.058,0.731 0.954,0 1.817,-0.168 2.587,-0.504 C 6.415,9.813 7.062,9.332 7.587,8.703 L 5.951,7.193 C 5.207,8.053 4.285,8.482 3.184,8.482 2.502,8.482 1.895,8.333 1.36,8.034 0.825,7.735 0.409,7.319 0.11,6.784 -0.189,6.25 -0.338,5.642 -0.338,4.961 -0.338,4.279 -0.189,3.671 0.11,3.137 0.409,2.602 0.825,2.186 1.36,1.887 1.895,1.588 2.502,1.438 3.184,1.438 c 1.101,0 2.023,0.435 2.767,1.305 L 7.587,1.233 C 7.062,0.595 6.413,0.106 5.637,-0.229 4.861,-0.563 3.996,-0.731 3.042,-0.731 1.92,-0.731 0.906,-0.488 0,0" style="fill:#a2a9ad;fill-opacity:1;fill-rule:nonzero;stroke:none" id="path56"/></g><g id="g58" transform="translate(143.6387,660.1875)"><path d="m 0,0 c 0.524,0.299 0.936,0.715 1.234,1.25 0.299,0.534 0.449,1.143 0.449,1.824 0,0.681 -0.15,1.289 -0.449,1.823 C 0.936,5.433 0.524,5.849 0,6.147 -0.524,6.446 -1.111,6.596 -1.761,6.596 -2.411,6.596 -2.998,6.446 -3.522,6.147 -4.046,5.849 -4.458,5.433 -4.756,4.897 -5.055,4.363 -5.205,3.755 -5.205,3.074 c 0,-0.681 0.15,-1.29 0.449,-1.824 0.298,-0.535 0.71,-0.951 1.234,-1.25 0.524,-0.299 1.111,-0.448 1.761,-0.448 0.65,0 1.237,0.149 1.761,0.448 m -4.851,-1.879 c -0.917,0.492 -1.635,1.171 -2.154,2.036 -0.519,0.864 -0.778,1.837 -0.778,2.917 0,1.079 0.259,2.052 0.778,2.916 0.519,0.865 1.237,1.544 2.154,2.037 0.917,0.493 1.947,0.74 3.09,0.74 1.142,0 2.17,-0.247 3.082,-0.74 C 2.233,7.534 2.951,6.855 3.475,5.99 4,5.126 4.262,4.153 4.262,3.074 4.262,1.994 4,1.021 3.475,0.157 2.951,-0.708 2.233,-1.387 1.321,-1.879 c -0.912,-0.493 -1.94,-0.739 -3.082,-0.739 -1.143,0 -2.173,0.246 -3.09,0.739" style="fill:#a2a9ad;fill-opacity:1;fill-rule:nonzero;stroke:none" id="path60"/></g><g id="g62" transform="translate(164.3945,668.7646)"><path d="m 0,0 v -11.007 h -2.091 l -5.488,6.683 v -6.683 h -2.516 V 0 h 2.107 l 5.472,-6.683 V 0 Z" style="fill:#a2a9ad;fill-opacity:1;fill-rule:nonzero;stroke:none" id="path64"/></g><g id="g66" transform="translate(173.7661,666.6895)"><path d="M 0,0 H -3.522 V 2.075 H 6.07 V 0 H 2.547 V -8.932 H 0 Z" style="fill:#a2a9ad;fill-opacity:1;fill-rule:nonzero;stroke:none" id="path68"/></g><g id="g70" transform="translate(192.0532,666.1934)"><path d="m 0,0 c -0.398,0.331 -0.98,0.496 -1.745,0.496 h -2.076 v -3.837 h 2.076 c 0.765,0 1.347,0.167 1.745,0.503 0.398,0.336 0.598,0.808 0.598,1.415 C 0.598,-0.804 0.398,-0.33 0,0 m 0.645,-8.436 -2.123,3.067 H -1.604 -3.821 V -8.436 H -6.368 V 2.571 h 4.764 c 0.975,0 1.821,-0.162 2.54,-0.487 C 1.653,1.759 2.207,1.298 2.595,0.7 2.982,0.103 3.176,-0.604 3.176,-1.423 3.176,-2.24 2.98,-2.945 2.587,-3.537 2.193,-4.13 1.635,-4.583 0.912,-4.897 l 2.469,-3.539 z" style="fill:#a2a9ad;fill-opacity:1;fill-rule:nonzero;stroke:none" id="path72"/></g><g id="g74" transform="translate(208.1699,662.0508)"><path d="M 0,0 -1.745,4.214 -3.491,0 Z m 0.802,-1.935 h -5.111 l -0.974,-2.358 h -2.611 l 4.907,11.007 h 2.515 L 4.45,-4.293 H 1.777 Z" style="fill:#a2a9ad;fill-opacity:1;fill-rule:nonzero;stroke:none" id="path76"/></g><g id="g78" transform="translate(220.3169,658.3008)"><path d="m 0,0 c -0.907,0.487 -1.62,1.163 -2.139,2.028 -0.519,0.865 -0.778,1.842 -0.778,2.933 0,1.09 0.259,2.067 0.778,2.932 0.519,0.865 1.232,1.541 2.139,2.029 0.906,0.487 1.926,0.731 3.058,0.731 0.954,0 1.817,-0.168 2.587,-0.504 C 6.415,9.813 7.062,9.332 7.587,8.703 L 5.951,7.193 C 5.207,8.053 4.285,8.482 3.184,8.482 2.502,8.482 1.895,8.333 1.36,8.034 0.825,7.735 0.409,7.319 0.11,6.784 -0.189,6.25 -0.338,5.642 -0.338,4.961 -0.338,4.279 -0.189,3.671 0.11,3.137 0.409,2.602 0.825,2.186 1.36,1.887 1.895,1.588 2.502,1.438 3.184,1.438 c 1.101,0 2.023,0.435 2.767,1.305 L 7.587,1.233 C 7.062,0.595 6.413,0.106 5.637,-0.229 4.861,-0.563 3.996,-0.731 3.042,-0.731 1.92,-0.731 0.906,-0.488 0,0" style="fill:#a2a9ad;fill-opacity:1;fill-rule:nonzero;stroke:none" id="path80"/></g><g id="g82" transform="translate(236.2686,666.6895)"><path d="M 0,0 H -3.522 V 2.075 H 6.07 V 0 H 2.547 V -8.932 H 0 Z" style="fill:#a2a9ad;fill-opacity:1;fill-rule:nonzero;stroke:none" id="path84"/></g><path d="m 248.187,668.765 h 2.547 v -11.007 h -2.547 z" style="fill:#a2a9ad;fill-opacity:1;fill-rule:nonzero;stroke:none" id="path86"/><g id="g88" transform="translate(267.9209,668.7646)"><path d="m 0,0 v -11.007 h -2.091 l -5.488,6.683 v -6.683 h -2.516 V 0 h 2.107 l 5.472,-6.683 V 0 Z" style="fill:#a2a9ad;fill-opacity:1;fill-rule:nonzero;stroke:none" id="path90"/></g><g id="g92" transform="translate(282.4502,663.4346)"><path d="M 0,0 H 2.327 V -4.466 C 1.729,-4.917 1.038,-5.263 0.251,-5.504 c -0.786,-0.241 -1.577,-0.361 -2.374,-0.361 -1.143,0 -2.17,0.243 -3.082,0.731 -0.912,0.488 -1.627,1.163 -2.146,2.029 -0.519,0.864 -0.778,1.841 -0.778,2.932 0,1.09 0.259,2.068 0.778,2.932 0.519,0.865 1.239,1.541 2.162,2.029 0.922,0.487 1.96,0.732 3.113,0.732 0.965,0 1.84,-0.164 2.626,-0.489 C 1.336,4.706 1.997,4.234 2.532,3.616 L 0.896,2.106 C 0.11,2.935 -0.839,3.349 -1.95,3.349 -2.652,3.349 -3.276,3.202 -3.821,2.908 -4.366,2.615 -4.791,2.201 -5.095,1.666 -5.399,1.132 -5.551,0.519 -5.551,-0.173 c 0,-0.681 0.152,-1.29 0.456,-1.824 0.304,-0.535 0.726,-0.951 1.266,-1.25 0.54,-0.299 1.156,-0.448 1.848,-0.448 0.733,0 1.394,0.157 1.981,0.471 z" style="fill:#a2a9ad;fill-opacity:1;fill-rule:nonzero;stroke:none" id="path94"/></g></g></g></g></svg>