<?xml version="1.0" encoding="UTF-8"?>
<svg xmlns="http://www.w3.org/2000/svg" xmlns:xlink="http://www.w3.org/1999/xlink" width="221.96pt" height="118.59pt" viewBox="0 0 221.96 118.59" version="1.1">
<defs>
<clipPath id="clip1">
  <path d="M 12 11 L 100 11 L 100 118.589844 L 12 118.589844 Z M 12 11 "/>
</clipPath>
<clipPath id="clip2">
  <path d="M 198 41 L 221.960938 41 L 221.960938 59 L 198 59 Z M 198 41 "/>
</clipPath>
</defs>
<g id="surface1">
<g clip-path="url(#clip1)" clip-rule="nonzero">
<path style=" stroke:none;fill-rule:evenodd;fill:rgb(100%,100%,100%);fill-opacity:1;" d="M 18.683594 33.367188 C 8.457031 65.164063 29.09375 94.589844 65.226563 97.53125 C 25.25 88.6875 18.398438 38.890625 39.296875 15.449219 C 37.652344 16.199219 36.058594 17.042969 34.519531 17.964844 L 23.265625 11.46875 L 12.34375 22.386719 Z M 47.621094 106.132813 L 50.960938 118.589844 L 66.402344 118.589844 L 69.683594 106.347656 C 74.839844 105.214844 79.683594 103.257813 84.074219 100.621094 L 95.332031 107.121094 L 99.84375 102.609375 L 99.84375 87.960938 C 93.089844 95.746094 83.785156 101.136719 73.925781 103.984375 C 65.335938 106.472656 56.421875 107.054688 47.621094 106.132813 "/>
</g>
<path style=" stroke:none;fill-rule:evenodd;fill:rgb(100%,100%,100%);fill-opacity:1;" d="M 48.910156 12.238281 C 35.300781 20.097656 29.570313 33.640625 30.886719 58.78125 C 31.164063 37.777344 48.273438 20.835938 69.34375 20.835938 C 81.765625 20.835938 92.8125 26.730469 99.84375 35.871094 L 99.84375 15.976563 L 96.203125 12.339844 L 85.222656 18.675781 C 80.902344 15.914063 76.113281 13.824219 71 12.546875 L 67.636719 -0.00390625 L 52.191406 -0.00390625 Z M 99.046875 83.71875 C 76.09375 111.910156 32.449219 100.261719 17.988281 72.269531 C 13.921875 64.484375 12.175781 56.058594 12.503906 47.605469 L 0 50.953125 L 0 66.398438 L 12.242188 69.679688 C 13.375 74.832031 15.332031 79.679688 17.96875 84.070313 L 11.472656 95.328125 L 22.394531 106.246094 L 33.371094 99.910156 C 63.046875 108.761719 87.511719 98.882813 99.046875 83.71875 "/>
<path style=" stroke:none;fill-rule:nonzero;fill:rgb(100%,100%,100%);fill-opacity:1;" d="M 74.257813 54.347656 L 70.773438 58.855469 L 61.96875 58.855469 C 60.445313 58.855469 59.039063 58.625 57.746094 58.171875 C 56.453125 57.71875 55.339844 57.09375 54.40625 56.296875 C 53.46875 55.503906 52.738281 54.558594 52.203125 53.46875 C 51.671875 52.375 51.40625 51.191406 51.40625 49.917969 C 51.40625 48.640625 51.671875 47.476563 52.203125 46.417969 C 52.738281 45.363281 53.46875 44.453125 54.40625 43.691406 C 55.339844 42.933594 56.453125 42.347656 57.746094 41.9375 C 59.039063 41.527344 60.445313 41.320313 61.96875 41.320313 L 74.257813 41.320313 L 70.773438 45.878906 L 61.96875 45.878906 C 61.234375 45.878906 60.550781 45.984375 59.921875 46.195313 C 59.292969 46.40625 58.75 46.699219 58.296875 47.074219 C 57.84375 47.449219 57.484375 47.898438 57.222656 48.421875 C 56.960938 48.949219 56.828125 49.523438 56.828125 50.152344 C 56.828125 50.78125 56.957031 51.355469 57.210938 51.867188 C 57.464844 52.386719 57.820313 52.824219 58.285156 53.191406 C 58.746094 53.558594 59.292969 53.84375 59.921875 54.042969 C 60.550781 54.246094 61.234375 54.347656 61.96875 54.347656 "/>
<path style=" stroke:none;fill-rule:nonzero;fill:rgb(100%,100%,100%);fill-opacity:1;" d="M 82.667969 58.855469 L 85.945313 54.34375 L 91.988281 54.34375 C 92.554688 54.34375 93.046875 54.363281 93.46875 54.398438 C 93.222656 54.082031 92.9375 53.6875 92.617188 53.207031 C 92.292969 52.726563 91.984375 52.277344 91.6875 51.855469 L 88.539063 47.21875 L 80.3125 58.855469 L 73.890625 58.855469 L 85.132813 43 C 85.5 42.492188 85.964844 42.039063 86.523438 41.636719 C 87.082031 41.234375 87.789063 41.03125 88.644531 41.03125 C 89.464844 41.03125 90.152344 41.21875 90.703125 41.597656 C 91.253906 41.972656 91.71875 42.441406 92.105469 43 L 103.058594 58.855469 "/>
<path style=" stroke:none;fill-rule:nonzero;fill:rgb(100%,100%,100%);fill-opacity:1;" d="M 123.996094 54.347656 L 120.484375 58.855469 L 104.996094 58.855469 L 104.996094 41.320313 L 110.421875 41.320313 L 110.421875 54.347656 "/>
<path style=" stroke:none;fill-rule:nonzero;fill:rgb(100%,100%,100%);fill-opacity:1;" d="M 126.699219 41.320313 L 134.585938 52.957031 L 142.816406 41.320313 L 149.210938 41.320313 L 137.992188 57.175781 C 137.609375 57.683594 137.136719 58.136719 136.578125 58.539063 C 136.019531 58.941406 135.320313 59.140625 134.480469 59.140625 C 133.660156 59.140625 132.972656 58.953125 132.425781 58.578125 C 131.875 58.203125 131.40625 57.734375 131.023438 57.175781 L 120.039063 41.320313 "/>
<path style=" stroke:none;fill-rule:nonzero;fill:rgb(100%,100%,100%);fill-opacity:1;" d="M 171.511719 54.347656 L 168.027344 58.855469 L 151.148438 58.855469 L 151.148438 41.320313 L 171.460938 41.320313 L 167.945313 45.878906 L 156.597656 45.878906 L 156.597656 47.976563 L 170.488281 47.976563 L 167.371094 51.960938 L 156.597656 51.960938 L 156.597656 54.347656 "/>
<path style=" stroke:none;fill-rule:nonzero;fill:rgb(100%,100%,100%);fill-opacity:1;" d="M 198.242188 58.855469 L 190.984375 58.855469 L 187.078125 54.214844 L 178.742188 54.214844 L 178.742188 58.855469 L 173.320313 58.855469 L 173.320313 49.890625 L 188.570313 49.890625 C 189.410156 49.890625 190.117188 49.714844 190.695313 49.367188 C 191.269531 49.015625 191.558594 48.539063 191.558594 47.925781 C 191.558594 47.242188 191.296875 46.734375 190.773438 46.390625 C 190.25 46.050781 189.515625 45.878906 188.570313 45.878906 L 173.320313 45.878906 L 176.855469 41.320313 L 188.125 41.320313 C 189.121094 41.320313 190.152344 41.414063 191.21875 41.597656 C 192.285156 41.78125 193.253906 42.109375 194.128906 42.578125 C 195 43.050781 195.722656 43.6875 196.289063 44.492188 C 196.855469 45.296875 197.140625 46.328125 197.140625 47.585938 C 197.140625 48.265625 197.035156 48.914063 196.828125 49.523438 C 196.617188 50.136719 196.316406 50.6875 195.921875 51.175781 C 195.53125 51.664063 195.050781 52.078125 194.480469 52.417969 C 193.914063 52.761719 193.269531 53 192.554688 53.140625 C 192.851563 53.367188 193.183594 53.65625 193.550781 54.003906 C 193.917969 54.355469 194.40625 54.835938 195.019531 55.445313 "/>
<g clip-path="url(#clip2)" clip-rule="nonzero">
<path style=" stroke:none;fill-rule:nonzero;fill:rgb(100%,100%,100%);fill-opacity:1;" d="M 221.960938 41.320313 L 218.445313 45.882813 L 212.183594 45.882813 L 212.183594 58.855469 L 206.757813 58.855469 L 206.757813 45.882813 L 198.53125 45.882813 L 202.042969 41.320313 "/>
</g>
<path style=" stroke:none;fill-rule:nonzero;fill:rgb(100%,100%,100%);fill-opacity:1;" d="M 56.480469 74.785156 C 55.574219 74.296875 54.863281 73.621094 54.34375 72.753906 C 53.824219 71.890625 53.566406 70.914063 53.566406 69.824219 C 53.566406 68.730469 53.824219 67.753906 54.34375 66.890625 C 54.863281 66.023438 55.574219 65.347656 56.480469 64.859375 C 57.386719 64.375 58.40625 64.128906 59.539063 64.128906 C 60.492188 64.128906 61.355469 64.296875 62.128906 64.632813 C 62.898438 64.96875 63.542969 65.453125 64.070313 66.082031 L 62.433594 67.589844 C 61.6875 66.730469 60.765625 66.300781 59.664063 66.300781 C 58.984375 66.300781 58.378906 66.449219 57.84375 66.75 C 57.308594 67.046875 56.890625 67.464844 56.59375 68 C 56.292969 68.535156 56.144531 69.140625 56.144531 69.824219 C 56.144531 70.503906 56.292969 71.113281 56.59375 71.644531 C 56.890625 72.179688 57.308594 72.597656 57.84375 72.894531 C 58.378906 73.195313 58.984375 73.34375 59.664063 73.34375 C 60.765625 73.34375 61.6875 72.910156 62.433594 72.039063 L 64.070313 73.550781 C 63.542969 74.1875 62.894531 74.675781 62.117188 75.011719 C 61.34375 75.347656 60.476563 75.515625 59.523438 75.515625 C 58.402344 75.515625 57.386719 75.269531 56.480469 74.785156 "/>
<path style=" stroke:none;fill-rule:nonzero;fill:rgb(100%,100%,100%);fill-opacity:1;" d="M 77.117188 72.898438 C 77.644531 72.597656 78.054688 72.179688 78.351563 71.648438 C 78.652344 71.113281 78.800781 70.503906 78.800781 69.824219 C 78.800781 69.140625 78.652344 68.535156 78.351563 68 C 78.054688 67.464844 77.644531 67.046875 77.117188 66.75 C 76.59375 66.449219 76.007813 66.300781 75.359375 66.300781 C 74.707031 66.300781 74.121094 66.449219 73.597656 66.75 C 73.074219 67.046875 72.660156 67.464844 72.363281 68 C 72.0625 68.535156 71.914063 69.140625 71.914063 69.824219 C 71.914063 70.503906 72.0625 71.113281 72.363281 71.648438 C 72.660156 72.179688 73.074219 72.597656 73.597656 72.898438 C 74.121094 73.195313 74.707031 73.34375 75.359375 73.34375 C 76.007813 73.34375 76.59375 73.195313 77.117188 72.898438 M 72.269531 74.777344 C 71.351563 74.285156 70.632813 73.605469 70.113281 72.738281 C 69.59375 71.875 69.335938 70.902344 69.335938 69.824219 C 69.335938 68.742188 69.59375 67.769531 70.113281 66.90625 C 70.632813 66.042969 71.351563 65.363281 72.269531 64.871094 C 73.183594 64.375 74.214844 64.128906 75.359375 64.128906 C 76.5 64.128906 77.527344 64.375 78.441406 64.871094 C 79.351563 65.363281 80.070313 66.042969 80.59375 66.90625 C 81.117188 67.769531 81.382813 68.742188 81.382813 69.824219 C 81.382813 70.902344 81.117188 71.875 80.59375 72.738281 C 80.070313 73.605469 79.351563 74.285156 78.441406 74.777344 C 77.527344 75.269531 76.5 75.515625 75.359375 75.515625 C 74.214844 75.515625 73.183594 75.269531 72.269531 74.777344 "/>
<path style=" stroke:none;fill-rule:nonzero;fill:rgb(100%,100%,100%);fill-opacity:1;" d="M 97.875 64.320313 L 97.875 75.328125 L 95.785156 75.328125 L 90.296875 68.644531 L 90.296875 75.328125 L 87.78125 75.328125 L 87.78125 64.320313 L 89.886719 64.320313 L 95.359375 71.003906 L 95.359375 64.320313 "/>
<path style=" stroke:none;fill-rule:nonzero;fill:rgb(100%,100%,100%);fill-opacity:1;" d="M 107.246094 66.394531 L 103.726563 66.394531 L 103.726563 64.320313 L 113.316406 64.320313 L 113.316406 66.394531 L 109.792969 66.394531 L 109.792969 75.328125 L 107.246094 75.328125 "/>
<path style=" stroke:none;fill-rule:nonzero;fill:rgb(100%,100%,100%);fill-opacity:1;" d="M 125.535156 66.890625 C 125.136719 66.558594 124.554688 66.394531 123.789063 66.394531 L 121.714844 66.394531 L 121.714844 70.230469 L 123.789063 70.230469 C 124.554688 70.230469 125.136719 70.066406 125.535156 69.730469 C 125.933594 69.394531 126.132813 68.921875 126.132813 68.3125 C 126.132813 67.695313 125.933594 67.21875 125.535156 66.890625 M 126.179688 75.328125 L 124.054688 72.257813 L 121.714844 72.257813 L 121.714844 75.328125 L 119.164063 75.328125 L 119.164063 64.320313 L 123.929688 64.320313 C 124.90625 64.320313 125.75 64.480469 126.46875 64.808594 C 127.1875 65.132813 127.742188 65.59375 128.128906 66.191406 C 128.515625 66.789063 128.710938 67.496094 128.710938 68.3125 C 128.710938 69.128906 128.515625 69.835938 128.121094 70.425781 C 127.726563 71.019531 127.167969 71.472656 126.445313 71.789063 L 128.914063 75.328125 "/>
<path style=" stroke:none;fill-rule:nonzero;fill:rgb(100%,100%,100%);fill-opacity:1;" d="M 141.648438 71.035156 L 139.90625 66.820313 L 138.160156 71.035156 Z M 142.453125 72.96875 L 137.339844 72.96875 L 136.367188 75.328125 L 133.757813 75.328125 L 138.664063 64.320313 L 141.179688 64.320313 L 146.101563 75.328125 L 143.425781 75.328125 "/>
<path style=" stroke:none;fill-rule:nonzero;fill:rgb(100%,100%,100%);fill-opacity:1;" d="M 153.796875 74.785156 C 152.890625 74.296875 152.175781 73.621094 151.65625 72.753906 C 151.140625 71.890625 150.878906 70.914063 150.878906 69.824219 C 150.878906 68.730469 151.140625 67.753906 151.65625 66.890625 C 152.175781 66.023438 152.890625 65.347656 153.796875 64.859375 C 154.703125 64.375 155.722656 64.128906 156.855469 64.128906 C 157.808594 64.128906 158.671875 64.296875 159.441406 64.632813 C 160.210938 64.96875 160.859375 65.453125 161.382813 66.082031 L 159.746094 67.589844 C 159.003906 66.730469 158.082031 66.300781 156.980469 66.300781 C 156.300781 66.300781 155.691406 66.449219 155.15625 66.75 C 154.621094 67.046875 154.207031 67.464844 153.90625 68 C 153.609375 68.535156 153.460938 69.140625 153.460938 69.824219 C 153.460938 70.503906 153.609375 71.113281 153.90625 71.644531 C 154.207031 72.179688 154.621094 72.597656 155.15625 72.894531 C 155.691406 73.195313 156.300781 73.34375 156.980469 73.34375 C 158.082031 73.34375 159.003906 72.910156 159.746094 72.039063 L 161.382813 73.550781 C 160.859375 74.1875 160.210938 74.675781 159.433594 75.011719 C 158.65625 75.347656 157.792969 75.515625 156.839844 75.515625 C 155.71875 75.515625 154.703125 75.269531 153.796875 74.785156 "/>
<path style=" stroke:none;fill-rule:nonzero;fill:rgb(100%,100%,100%);fill-opacity:1;" d="M 169.75 66.394531 L 166.226563 66.394531 L 166.226563 64.320313 L 175.820313 64.320313 L 175.820313 66.394531 L 172.296875 66.394531 L 172.296875 75.328125 L 169.75 75.328125 "/>
<path style=" stroke:none;fill-rule:nonzero;fill:rgb(100%,100%,100%);fill-opacity:1;" d="M 181.667969 75.324219 L 184.214844 75.324219 L 184.214844 64.320313 L 181.667969 64.320313 Z M 181.667969 75.324219 "/>
<path style=" stroke:none;fill-rule:nonzero;fill:rgb(100%,100%,100%);fill-opacity:1;" d="M 201.402344 64.320313 L 201.402344 75.328125 L 199.308594 75.328125 L 193.820313 68.644531 L 193.820313 75.328125 L 191.304688 75.328125 L 191.304688 64.320313 L 193.414063 64.320313 L 198.886719 71.003906 L 198.886719 64.320313 "/>
<path style=" stroke:none;fill-rule:nonzero;fill:rgb(100%,100%,100%);fill-opacity:1;" d="M 215.929688 69.648438 L 218.257813 69.648438 L 218.257813 74.117188 C 217.660156 74.566406 216.96875 74.914063 216.183594 75.152344 C 215.394531 75.394531 214.605469 75.515625 213.808594 75.515625 C 212.664063 75.515625 211.636719 75.273438 210.726563 74.785156 C 209.8125 74.296875 209.097656 73.621094 208.578125 72.753906 C 208.0625 71.890625 207.800781 70.914063 207.800781 69.824219 C 207.800781 68.734375 208.0625 67.753906 208.578125 66.890625 C 209.097656 66.027344 209.820313 65.347656 210.742188 64.863281 C 211.664063 64.375 212.703125 64.128906 213.855469 64.128906 C 214.820313 64.128906 215.695313 64.292969 216.480469 64.617188 C 217.265625 64.945313 217.929688 65.414063 218.464844 66.035156 L 216.828125 67.542969 C 216.039063 66.714844 215.089844 66.300781 213.980469 66.300781 C 213.277344 66.300781 212.65625 66.449219 212.109375 66.742188 C 211.5625 67.035156 211.140625 67.449219 210.835938 67.984375 C 210.53125 68.515625 210.378906 69.128906 210.378906 69.824219 C 210.378906 70.503906 210.53125 71.113281 210.835938 71.648438 C 211.140625 72.179688 211.5625 72.597656 212.101563 72.898438 C 212.640625 73.195313 213.257813 73.34375 213.949219 73.34375 C 214.683594 73.34375 215.34375 73.1875 215.929688 72.875 "/>
</g>
</svg>
